<svg width="48" height="48" viewBox="0 0 48 48" fill="none" xmlns="http://www.w3.org/2000/svg">
<path d="M33 5.25H15C10.4437 5.25 6.75 8.94365 6.75 13.5V34.5C6.75 39.0564 10.4437 42.75 15 42.75H33C37.5563 42.75 41.25 39.0564 41.25 34.5V13.5C41.25 8.94365 37.5563 5.25 33 5.25Z" fill="#FFE8AC"/>
<path d="M6.75 13.5C6.75 8.94375 10.4438 5.25 15 5.25H33C37.5562 5.25 41.25 8.94375 41.25 13.5V16.5H6.75V13.5Z" fill="#FFBD66"/>
<path d="M27.375 21.75H14.625C13.5895 21.75 12.75 22.5895 12.75 23.625C12.75 24.6605 13.5895 25.5 14.625 25.5H27.375C28.4105 25.5 29.25 24.6605 29.25 23.625C29.25 22.5895 28.4105 21.75 27.375 21.75Z" fill="#FFBD66"/>
<path d="M21.375 29.25H14.625C13.5895 29.25 12.75 30.0895 12.75 31.125C12.75 32.1605 13.5895 33 14.625 33H21.375C22.4105 33 23.25 32.1605 23.25 31.125C23.25 30.0895 22.4105 29.25 21.375 29.25Z" fill="#FFBD66"/>
<circle cx="37" cy="36" r="11" fill="white"/>
<path d="M37 45C41.9706 45 46 40.9706 46 36C46 31.0294 41.9706 27 37 27C32.0294 27 28 31.0294 28 36C28 40.9706 32.0294 45 37 45Z" fill="#1FCA5E"/>
<path d="M32.875 34.25L35.875 37.25L41.125 30.875L43 32.75L36.1 41L31 35.9L32.875 34.25Z" fill="white"/>
</svg>
